# xmcd
#
# Track frame offsets:
#   180
#   22279
#   41934
#   67610
#   93959
#   116541
#   136292
#   158367
#   180815
#   201260
#   222503
#   266785
#   287716
#   306675
#
# Disc length: 4285 seconds
#
# Revision: 0
# Processed by: cddbd v1.4PL0 Copyright (c) Steve Scherf et al.
# Submitted via: uFREEDB 1.6.0
#
DISCID=cd10bb0e
DTITLE=Billy Ray Cyrus - Achy Breaky Heart
DYEAR=1900
DGENRE=UnClassifiable
TTITLE0=Heartland
TTITLE1=The will to love
TTITLE2=The Thunder rolls
TTITLE3=Friends in low places
TTITLE4=A healing Fire
TTITLE5=Crying
TTITLE6=Sign of the dotted line
TTITLE7=Achy breaky heart (don't tll my heart)
TTITLE8=Johnny come lately
TTITLE9=Medly
TTITLE10=Medly
TTITLE11=Indian man
TTITLE12=Losing you
TTITLE13=Cry out
EXTD=
EXTT0=
EXTT1=
EXTT2=
EXTT3=
EXTT4=
EXTT5=
EXTT6=
EXTT7=
EXTT8=
EXTT9=
EXTT10=
EXTT11=
EXTT12=
EXTT13=
PLAYORDER=
